<svg width="92" height="76" viewBox="0 0 92 76" fill="none" xmlns="http://www.w3.org/2000/svg" xmlns:xlink="http://www.w3.org/1999/xlink">
<path d="M31.25,74.5C30.034,74.5 28.869,74.105 28.009,73.402C27.149,72.698 26.667,71.745 26.667,70.75L26.667,59.5L8.333,59.5C5.902,59.5 3.571,58.71 1.852,57.303C0.132,55.897 -0.833,53.989 -0.833,52L-0.833,7C-0.833,2.837 3.292,-0.5 8.333,-0.5L81.667,-0.5C84.098,-0.5 86.429,0.29 88.148,1.697C89.867,3.103 90.833,5.011 90.833,7L90.833,52C90.833,53.989 89.867,55.897 88.148,57.303C86.429,58.71 84.098,59.5 81.667,59.5L53.708,59.5L36.75,73.412C35.833,74.125 34.687,74.5 33.542,74.5L31.25,74.5Z" fill="#000000"/>
</svg>
