<svg width="60" height="62" viewBox="0 0 60 62" fill="none" xmlns="http://www.w3.org/2000/svg" xmlns:xlink="http://www.w3.org/1999/xlink">
<path d="M50,43.58C47.467,43.58 45.2,44.505 43.467,45.954L19.7,33.158C19.867,32.449 20,31.74 20,31C20,30.26 19.867,29.551 19.7,28.842L43.2,16.169C45,17.711 47.367,18.667 50,18.667C52.652,18.667 55.196,17.692 57.071,15.957C58.946,14.223 60,11.87 60,9.417C60,6.963 58.946,4.61 57.071,2.876C55.196,1.141 52.652,0.167 50,0.167C47.348,0.167 44.804,1.141 42.929,2.876C41.054,4.61 40,6.963 40,9.417C40,10.157 40.133,10.866 40.3,11.575L16.8,24.247C15,22.706 12.633,21.75 10,21.75C7.348,21.75 4.804,22.724 2.929,24.459C1.054,26.194 0,28.547 0,31C0,33.453 1.054,35.806 2.929,37.541C4.804,39.275 7.348,40.25 10,40.25C12.633,40.25 15,39.294 16.8,37.752L40.533,50.548C40.367,51.196 40.267,51.874 40.267,52.583C40.267,57.547 44.633,61.556 50,61.556C55.367,61.556 59.733,57.547 59.733,52.583C59.733,50.195 58.708,47.905 56.883,46.217C55.057,44.528 52.581,43.58 50,43.58Z" fill="#000000"/>
</svg>
