<svg width="52" height="60" viewBox="0 0 52 60" fill="none" xmlns="http://www.w3.org/2000/svg" xmlns:xlink="http://www.w3.org/1999/xlink">
<path d="M25.384,0C32.566,0 38.384,5.967 38.384,13.333C38.384,20.7 32.566,26.667 25.384,26.667C18.201,26.667 12.384,20.7 12.384,13.333C12.384,5.967 18.201,0 25.384,0ZM38.384,35.133C38.384,38.667 37.474,46.9 31.266,56.1L28.634,40L31.689,33.733C29.674,33.5 27.561,33.333 25.384,33.333C23.206,33.333 21.094,33.5 19.079,33.733L22.134,40L19.501,56.1C13.294,46.9 12.384,38.667 12.384,35.133C4.616,37.467 -0.616,41.667 -0.616,46.667L-0.616,60L51.384,60L51.384,46.667C51.384,41.667 46.184,37.467 38.384,35.133Z" fill="#035D0C"/>
</svg>
