<svg width="76" height="64" viewBox="0 0 76 64" fill="none" xmlns="http://www.w3.org/2000/svg" xmlns:xlink="http://www.w3.org/1999/xlink">
<path d="M68.134,44.667L68.134,6.667L6.634,6.667L6.634,44.667L68.134,44.667ZM68.134,0.333C69.946,0.333 71.684,1.001 72.965,2.188C74.247,3.376 74.967,4.987 74.967,6.667L74.967,44.667C74.967,46.346 74.247,47.957 72.965,49.145C71.684,50.333 69.946,51 68.134,51L44.217,51L44.217,57.333L51.05,57.333L51.05,63.667L23.717,63.667L23.717,57.333L30.55,57.333L30.55,51L6.634,51C2.841,51 -0.2,48.15 -0.2,44.667L-0.2,6.667C-0.2,3.152 2.841,0.333 6.634,0.333L68.134,0.333ZM13.467,13L44.217,13L44.217,28.833L13.467,28.833L13.467,13ZM47.634,13L61.3,13L61.3,19.333L47.634,19.333L47.634,13ZM61.3,22.5L61.3,38.333L47.634,38.333L47.634,22.5L61.3,22.5ZM13.467,32L27.134,32L27.134,38.333L13.467,38.333L13.467,32ZM30.55,32L44.217,32L44.217,38.333L30.55,38.333L30.55,32Z" fill="#035D0C"/>
</svg>
