<svg width="60" height="56" viewBox="0 0 60 56" fill="none" xmlns="http://www.w3.org/2000/svg" xmlns:xlink="http://www.w3.org/1999/xlink">
<path d="M48.983,36.28C50.004,33.73 50.558,31 50.558,28C50.558,25.84 50.238,23.77 49.683,21.85C47.788,22.3 45.804,22.54 43.733,22.54C34.808,22.54 26.904,18.01 22.092,11.02C19.496,17.5 14.538,22.78 8.296,25.66C8.179,26.41 8.179,27.22 8.179,28C8.179,33.784 10.413,39.332 14.39,43.422C18.366,47.512 23.76,49.81 29.383,49.81C32.446,49.81 35.392,49.12 38.046,47.89C39.708,51.16 40.467,52.78 40.408,52.78C35.625,54.43 31.921,55.24 29.383,55.24C22.325,55.24 15.588,52.39 10.629,47.26C7.596,44.14 5.35,40.33 4.096,36.19L0.217,36.19L0.217,22.54L3.396,22.54C5.846,10.12 16.55,0.76 29.383,0.76C36.383,0.76 43.121,3.61 48.108,8.74C51.813,12.52 54.292,17.35 55.313,22.54L58.55,22.54L58.55,36.01L58.55,36.07L58.55,36.19L58.375,36.19L47.992,46L32.533,44.2L32.533,39.19L46.621,39.19L48.983,36.28ZM21.421,27.31C22.296,27.31 23.142,27.67 23.754,28.33C24.367,28.96 24.717,29.83 24.717,30.73C24.717,31.63 24.367,32.5 23.754,33.13C23.142,33.76 22.296,34.12 21.421,34.12C19.584,34.12 18.096,32.62 18.096,30.73C18.096,28.84 19.584,27.31 21.421,27.31ZM37.317,27.31C39.154,27.31 40.613,28.84 40.613,30.73C40.613,32.62 39.154,34.12 37.317,34.12C35.479,34.12 33.992,32.62 33.992,30.73C33.992,29.823 34.342,28.953 34.966,28.311C35.589,27.67 36.435,27.31 37.317,27.31Z" fill="#035D0C"/>
</svg>
