<svg width="80" height="76" viewBox="0 0 80 76" fill="none" xmlns="http://www.w3.org/2000/svg" xmlns:xlink="http://www.w3.org/1999/xlink">
<path d="M29.542,0.75C37.443,0.75 45.021,3.66 50.608,8.841C56.195,14.022 59.333,21.048 59.333,28.375C59.333,35.217 56.629,41.507 52.183,46.352L53.421,47.5L57.042,47.5L79.958,68.75L73.083,75.125L50.167,53.875L50.167,50.518L48.929,49.37C43.704,53.492 36.921,56 29.542,56C21.64,56 14.063,53.09 8.476,47.909C2.889,42.728 -0.25,35.702 -0.25,28.375C-0.25,21.048 2.889,14.022 8.476,8.841C14.063,3.66 21.64,0.75 29.542,0.75ZM29.542,9.25C18.083,9.25 8.917,17.75 8.917,28.375C8.917,39 18.083,47.5 29.542,47.5C41,47.5 50.167,39 50.167,28.375C50.167,17.75 41,9.25 29.542,9.25Z" fill="#000000"/>
</svg>
