<svg width="68" height="68" viewBox="0 0 68 68" fill="none" xmlns="http://www.w3.org/2000/svg" xmlns:xlink="http://www.w3.org/1999/xlink">
<path d="M36.467,43.4C37.392,44.033 38.625,44.033 39.55,43.4L54.967,34.217L54.967,35.167C57.125,35.167 59.283,35.483 61.133,36.433L61.133,30.733L64.217,28.833C65.758,27.883 66.067,25.983 65.45,24.4L60.825,16.483C60.517,15.85 60.208,15.217 59.592,14.9L35.233,0.967C34.617,0.65 34,0.333 33.383,0.333C32.767,0.333 32.15,0.65 31.533,0.967L7.484,14.9C6.867,15.217 6.25,15.533 5.942,16.167L1.317,24.4C0.392,25.983 1.009,27.883 2.55,28.833C3.475,29.467 4.709,29.467 5.634,28.833L5.634,46.25C5.634,47.517 6.25,48.467 7.175,49.1L31.533,63.033C32.15,63.35 32.767,63.667 33.383,63.667C34,63.667 34.617,63.35 35.233,63.033L38.008,61.45C37.083,59.55 36.775,57.333 36.467,55.117M30.3,55.117L11.8,44.35L11.8,23.133L30.3,33.9L30.3,55.117ZM58.358,24.717L38.933,36.117L37.083,32.95L56.508,21.55L58.358,24.717ZM33.383,28.2L33.383,7.3L51.883,17.75L33.383,28.2ZM58.05,41.5L58.05,51L67.3,51L67.3,57.333L58.05,57.333L58.05,66.833L51.883,66.833L51.883,57.333L42.633,57.333L42.633,51L51.883,51L51.883,41.5L58.05,41.5Z" fill="#035D0C"/>
</svg>
